<?xml version="1.0" standalone="no"?>
<!DOCTYPE svg PUBLIC "-//W3C//DTD SVG 20010904//EN"
 "http://www.w3.org/TR/2001/REC-SVG-20010904/DTD/svg10.dtd">
<svg version="1.0" xmlns="http://www.w3.org/2000/svg"
 width="300.000000pt" height="264.000000pt" viewBox="0 0 300.000000 264.000000"
 preserveAspectRatio="xMidYMid meet">
<metadata>
Created by potrace 1.10, written by Peter Selinger 2001-2011
</metadata>
<g transform="translate(0.000000,264.000000) scale(0.100000,-0.100000)"
fill="#000000" stroke="none">
<path d="M900 2375 c-14 -37 -587 -1448 -616 -1517 -13 -32 -24 -60 -24 -63 0
-3 85 -5 189 -5 l188 0 59 165 59 165 306 0 307 0 57 -165 58 -165 356 0 c196
0 384 5 419 10 229 37 365 186 379 415 9 139 -35 256 -129 340 -43 39 -150 95
-182 95 -14 0 -6 9 25 29 24 15 54 39 66 52 36 40 71 121 83 192 35 221 -102
415 -329 463 -48 10 -147 14 -369 14 l-303 0 3 -359 c2 -198 2 -358 0 -356 -3
3 -150 364 -262 640 l-28 70 -151 3 -151 3 -10 -26z m277 -23 c7 -4 69 -147
138 -316 69 -170 135 -322 146 -337 24 -35 43 -37 63 -7 14 19 16 68 16 333 0
229 3 314 12 323 15 15 469 16 570 2 144 -21 244 -84 303 -192 28 -50 30 -59
30 -168 0 -138 -13 -170 -108 -267 l-61 -62 20 -22 c10 -12 48 -36 84 -54 63
-32 143 -105 170 -155 53 -100 51 -265 -5 -383 -49 -104 -174 -188 -310 -207
-108 -15 -707 -13 -727 3 -9 6 -37 71 -63 142 -25 72 -55 139 -66 150 -19 19
-33 20 -330 20 l-311 0 -21 -27 c-12 -15 -42 -84 -66 -153 -27 -78 -51 -129
-62 -135 -10 -6 -72 -10 -139 -10 -99 0 -122 3 -127 15 -3 9 75 212 172 453
98 240 232 570 298 732 65 162 126 303 135 313 13 14 33 17 121 17 58 0 112
-4 118 -8z"/>
<path d="M1842 2137 c-21 -22 -22 -32 -22 -201 0 -98 4 -186 10 -196 22 -42
150 -51 232 -17 181 76 190 325 15 412 -42 21 -65 25 -132 25 -72 0 -84 -3
-103 -23z m213 -36 c136 -61 151 -246 27 -323 -29 -18 -56 -24 -130 -28 l-92
-5 0 188 0 187 78 0 c53 0 90 -6 117 -19z"/>
<path d="M1036 1984 c-24 -24 -31 -40 -91 -211 -31 -87 -68 -189 -82 -226 -14
-37 -27 -85 -30 -106 -5 -33 -1 -41 23 -60 27 -21 35 -22 210 -19 254 4 253 4
180 209 -112 316 -139 386 -159 407 -24 26 -31 27 -51 6z m34 -25 c0 -5 43
-130 95 -276 52 -147 95 -270 95 -273 0 -3 -90 -5 -200 -5 -110 0 -200 4 -200
8 0 5 43 128 95 273 52 146 95 272 95 280 0 8 5 12 10 9 6 -3 10 -11 10 -16z"/>
<path d="M1863 1490 c-38 -16 -43 -41 -43 -233 0 -238 -8 -227 178 -227 91 0
143 4 166 14 89 37 163 149 153 232 -11 102 -91 193 -187 213 -60 13 -236 14
-267 1z m270 -41 c76 -21 146 -111 147 -187 0 -69 -45 -138 -112 -173 -31 -16
-59 -19 -173 -19 l-135 0 0 195 0 195 118 0 c64 0 134 -5 155 -11z"/>
<path d="M53 205 c-17 -41 -27 -75 -22 -75 4 0 13 9 19 20 15 27 66 27 75 0 3
-11 11 -20 17 -20 5 0 7 8 4 18 -32 86 -52 132 -56 132 -3 0 -20 -34 -37 -75z
m57 -7 c0 -4 -9 -8 -21 -8 -15 0 -19 4 -15 16 3 9 6 21 6 27 1 13 30 -22 30
-35z"/>
<path d="M290 205 c0 -85 17 -103 22 -23 l3 53 34 -53 c18 -28 35 -52 37 -52
2 0 4 34 4 75 0 49 -4 75 -11 75 -8 0 -10 -17 -7 -50 6 -57 0 -57 -39 5 -15
25 -31 45 -35 45 -5 0 -8 -34 -8 -75z"/>
<path d="M550 205 l0 -75 29 0 c15 0 40 9 55 21 55 43 18 129 -55 129 l-29 0
0 -75z m71 45 c13 -7 19 -21 19 -45 0 -35 -20 -55 -54 -55 -13 0 -16 12 -16
55 0 59 9 67 51 45z"/>
<path d="M810 205 c0 -43 4 -75 10 -75 6 0 10 14 10 30 0 38 10 38 35 0 11
-16 26 -30 34 -30 10 0 8 7 -8 24 l-23 25 21 26 c31 41 7 75 -55 75 -23 0 -24
-2 -24 -75z m74 38 c5 -11 1 -22 -10 -30 -29 -21 -44 -15 -44 17 0 25 4 30 24
30 13 0 27 -8 30 -17z"/>
<path d="M1050 205 l0 -75 45 0 c25 0 45 5 45 10 0 6 -16 10 -35 10 -30 0 -35
3 -35 24 0 21 5 25 38 29 l37 4 -37 1 c-33 2 -38 5 -38 27 0 22 4 25 35 25 19
0 35 5 35 10 0 6 -20 10 -45 10 l-45 0 0 -75z"/>
<path d="M1285 258 c3 -13 11 -50 18 -82 l13 -60 24 64 24 64 20 -57 c12 -31
24 -57 27 -57 5 0 29 113 29 140 0 26 -15 -3 -25 -48 l-11 -47 -18 53 c-10 29
-21 50 -25 47 -3 -4 -13 -27 -22 -53 -18 -51 -16 -53 -34 33 -3 14 -10 25 -15
25 -6 0 -8 -10 -5 -22z"/>
<path d="M1770 205 l0 -75 33 0 c33 0 67 24 67 47 0 6 -7 16 -15 23 -11 9 -13
16 -5 24 5 5 10 13 10 17 0 18 -34 39 -61 39 l-29 0 0 -75z m65 35 c0 -8 -10
-16 -22 -18 -18 -3 -23 2 -23 18 0 16 5 21 23 18 12 -2 22 -10 22 -18z m10
-65 c0 -14 -8 -21 -27 -23 -24 -3 -28 0 -28 23 0 23 4 26 28 23 19 -2 27 -9
27 -23z"/>
<path d="M2010 205 c0 -43 4 -75 10 -75 6 0 10 14 10 30 0 38 10 38 35 0 11
-16 26 -30 33 -30 9 0 7 8 -7 27 l-21 26 20 19 c24 23 24 27 4 56 -11 15 -25
22 -50 22 l-34 0 0 -75z m77 39 c4 -11 -1 -22 -12 -30 -30 -22 -45 -17 -45 16
0 25 4 30 25 30 15 0 28 -7 32 -16z"/>
<path d="M2272 257 c-56 -60 6 -150 83 -121 8 4 23 20 31 36 39 75 -57 146
-114 85z m95 -23 c15 -24 15 -29 2 -53 -17 -31 -68 -41 -89 -16 -16 19 -16 60
0 80 20 25 67 19 87 -11z"/>
<path d="M2535 258 c3 -13 11 -50 18 -82 l13 -60 24 64 24 64 20 -57 c12 -31
23 -57 26 -57 5 0 30 117 30 141 0 26 -15 -5 -25 -49 l-11 -47 -18 53 c-10 28
-21 50 -25 47 -5 -2 -14 -25 -21 -51 -14 -50 -23 -45 -34 19 -4 20 -11 37 -17
37 -5 0 -7 -10 -4 -22z"/>
<path d="M2840 207 c0 -46 4 -77 10 -77 7 0 8 18 4 52 -8 60 1 59 43 -7 15
-25 30 -45 33 -45 3 0 6 34 6 75 2 84 -13 103 -18 23 l-3 -51 -37 53 -38 54 0
-77z"/>
</g>
</svg>
