<?xml version="1.0" standalone="no"?>
<!DOCTYPE svg PUBLIC "-//W3C//DTD SVG 20010904//EN"
 "http://www.w3.org/TR/2001/REC-SVG-20010904/DTD/svg10.dtd">
<svg version="1.0" xmlns="http://www.w3.org/2000/svg"
 width="300.000000pt" height="215.000000pt" viewBox="0 0 300.000000 215.000000"
 preserveAspectRatio="xMidYMid meet">
<metadata>
Created by potrace 1.10, written by Peter Selinger 2001-2011
</metadata>
<g transform="translate(0.000000,215.000000) scale(0.100000,-0.100000)"
fill="#000000" stroke="none">
<path d="M860 1908 c-6 -13 -170 -417 -365 -898 l-354 -875 202 -3 c111 -1
207 0 213 2 6 2 39 83 74 180 l63 176 345 -2 344 -3 63 -175 63 -175 433 0
c479 0 481 0 613 67 148 75 245 246 246 435 0 218 -116 377 -335 458 -20 7
-20 7 -1 18 146 87 219 295 170 482 -30 116 -108 213 -221 272 -107 58 -150
63 -535 63 l-348 0 -2 -395 -3 -395 -160 395 -160 395 -168 0 c-164 0 -168 0
-177 -22z m1263 -299 c21 -5 54 -24 74 -42 96 -85 96 -229 0 -314 -46 -40 -91
-53 -189 -53 l-78 0 0 210 0 210 78 0 c42 0 94 -5 115 -11z m-969 -482 c58
-164 106 -300 106 -303 0 -2 -101 -4 -225 -4 -124 0 -225 1 -225 3 0 2 50 142
110 312 61 169 110 311 110 314 1 18 28 -53 124 -322z m1066 -258 c104 -23
173 -107 173 -208 0 -88 -41 -154 -123 -197 -29 -15 -63 -19 -187 -22 l-153
-4 0 221 0 221 123 0 c67 0 142 -5 167 -11z"/>
</g>
</svg>
